# File created by Blade
# Date/Time:  Tue Apr 07 20:35:32 2015
# Frame Rate: 120.000 fps
#------------------------------------------------------
:FULLY-SPECIFIED
:DEGREES
1466
root 1.713603 34.659437 -4.672891 67.014734 -9.741463 -37.254721
Spine -28.211430 18.543046 12.582898
Head -21.308982 7.987408 9.009973
LeftShoulder -27.676372 39.782945 17.658055
LeftArm 60.804664 -60.640183 -87.654537
LeftForeArm 3.475000 -0.000000 5.078683
LeftHand 12.261180 -0.000000 14.872681
LeftHandThumb1 -26.253704 0.000000 33.147579
RightShoulder -5.680031 8.049814 -24.323026
RightArm 0.191794 26.752986 51.810849
RightForeArm -9.152900 -0.000000 6.710539
RightHand 4.375808 -0.000000 -4.203421
RightHandThumb1 -24.326973 -0.000000 -32.862282
LeftUpLeg -54.942453 27.162609 18.114971
LeftLeg -1.149602 -0.000000 0.000000
LeftFoot -4.157710 8.417982 -21.988815
LeftToeBase 2.116317 -0.000000 -0.000000
RightUpLeg 13.531610 -11.708642 -24.434816
RightLeg 23.804572 -0.000000 -0.000000
RightFoot 42.570587 -11.882325 -4.792081
RightToeBase 29.596638 -0.000000 -0.000000
1467
root 1.709469 34.635724 -4.664415 66.810330 -9.755205 -37.177206
Spine -28.117819 18.392653 12.599442
Head -21.256242 7.991589 9.067184
LeftShoulder -27.648277 39.767172 17.647814
LeftArm 60.877990 -60.530291 -87.719960
LeftForeArm 3.387875 -0.000000 5.142805
LeftHand 12.224408 -0.000000 14.740568
LeftHandThumb1 -26.253704 0.000000 33.147579
RightShoulder -5.705820 7.806850 -24.378023
RightArm 0.017255 26.672213 51.977658
RightForeArm -9.247215 -0.000000 6.787716
RightHand 3.902649 -0.000000 -3.902388
RightHandThumb1 -24.326973 -0.000000 -32.862282
LeftUpLeg -54.822113 26.999857 18.052680
LeftLeg -1.079480 -0.000000 0.000000
LeftFoot -4.442899 8.758618 -21.469851
LeftToeBase 2.018159 -0.000000 -0.000000
RightUpLeg 13.282386 -11.642581 -24.268098
RightLeg 24.388506 -0.000000 -0.000000
RightFoot 42.921615 -11.547418 -4.984888
RightToeBase 28.974171 -0.000000 -0.000000
1468
root 1.704777 34.613962 -4.654550 66.597365 -9.771520 -37.093804
Spine -28.004087 18.304784 12.609623
Head -21.258687 7.896586 9.031811
LeftShoulder -27.516907 39.654842 17.631741
LeftArm 60.717287 -60.469761 -87.496257
LeftForeArm 3.391820 -0.000000 5.178548
LeftHand 12.237979 -0.000000 14.701479
LeftHandThumb1 -26.253704 0.000000 33.147579
RightShoulder -5.775842 7.468427 -24.465104
RightArm -0.169747 26.647609 52.205516
RightForeArm -9.465728 -0.000000 6.876256
RightHand 3.953503 0.000000 -3.982737
RightHandThumb1 -24.326973 -0.000000 -32.862282
LeftUpLeg -54.665534 26.812175 18.018919
LeftLeg -1.053218 -0.000000 0.000000
LeftFoot -4.636486 9.178223 -20.852041
LeftToeBase 1.724085 -0.000000 -0.000000
RightUpLeg 13.024497 -11.586945 -24.124392
RightLeg 25.028265 -0.000000 -0.000000
RightFoot 43.043619 -11.437117 -4.769562
RightToeBase 28.953977 -0.000000 -0.000000
1469
root 1.700477 34.596131 -4.644297 66.422731 -9.779548 -36.985876
Spine -27.941075 18.136845 12.635002
Head -21.243781 7.881226 8.985396
LeftShoulder -27.495269 39.641976 17.524670
LeftArm 60.613183 -60.399179 -87.325239
LeftForeArm 3.239106 0.000000 5.267206
LeftHand 12.279005 -0.000000 14.535423
LeftHandThumb1 -26.253704 0.000000 33.147579
RightShoulder -5.771704 7.097865 -24.354187
RightArm -0.210411 26.434514 52.220543
RightForeArm -9.208960 -0.000000 6.993311
RightHand 3.315128 -0.000000 -4.143835
RightHandThumb1 -24.326973 -0.000000 -32.862282
LeftUpLeg -54.524190 26.577354 18.026848
LeftLeg -1.060823 -0.000000 0.000000
LeftFoot -4.739952 9.666885 -20.215926
LeftToeBase 1.054399 -0.000000 -0.000000
RightUpLeg 12.745758 -11.515707 -23.939684
RightLeg 25.625690 -0.000000 -0.000000
RightFoot 43.115032 -11.326484 -4.593461
RightToeBase 29.352786 -0.000000 -0.000000
1470
root 1.696360 34.578235 -4.629061 66.231545 -9.787810 -36.846387
Spine -27.896748 17.965845 12.591986
Head -21.241941 7.860827 9.051251
LeftShoulder -27.258035 39.441506 17.764640
LeftArm 60.130085 -60.394542 -87.097570
LeftForeArm 3.334051 0.000000 5.477275
LeftHand 12.296253 -0.000000 14.436738
LeftHandThumb1 -26.253704 0.000000 33.147579
RightShoulder -5.807373 6.738891 -24.283798
RightArm -0.376784 26.198046 52.331413
RightForeArm -9.147898 -0.000000 7.035128
RightHand 3.260151 -0.000000 -4.036227
RightHandThumb1 -24.326973 -0.000000 -32.862282
LeftUpLeg -54.283461 26.209335 18.166479
LeftLeg -1.128120 -0.000000 0.000000
LeftFoot -4.814923 10.342613 -19.537668
LeftToeBase 0.640726 -0.000000 -0.000000
RightUpLeg 12.516286 -11.459504 -23.761702
RightLeg 26.157493 -0.000000 -0.000000
RightFoot 43.195423 -11.132589 -4.532636
RightToeBase 29.563933 -0.000000 -0.000000
